#!OML:ASF H:\Terrain\Patient Classification 1\Takeo\Monday\TakeoMonday.ASF
:FULLY-SPECIFIED
:DEGREES
356
root 5.35584 17.4667 2.70121 -162.903 85.029 -158.685
lowerback 8.233 -4.39358 0.565539
upperback 3.36554 -5.73675 -2.2516
thorax -1.40155 -2.80698 -2.09389
lowerneck -5.59854 -9.36366 -7.11519
upperneck 3.23421 -12.2631 5.66001
head 2.91127 -6.04886 2.49146
rclavicle 3.15074e-014 3.97569e-014
rhumerus -23.5881 0.493714 -54.1915
rradius 67.8801
rwrist -14.4435
rhand -43.6026 27.9303
rfingers 7.12502
rthumb -16.4387 -1.39324
lclavicle 3.15074e-014 3.97569e-014
lhumerus -18.5005 -21.5505 92.533
lradius 74.4327
lwrist 24.4463
lhand -25.8447 25.6788
lfingers 7.12502
lthumb 0.695776 55.6574
rfemur -7.84242 1.90054 20.3214
rtibia 30.9798
rfoot -18.0009 -11.8151
rtoes 4.59792
lfemur 0.536022 6.68612 -6.07075
ltibia 24.7287
lfoot -15.4779 24.2807
ltoes -4.23679
357
root 5.33589 17.4653 2.66691 -166.196 84.7027 -161.824
lowerback 8.40627 -4.36556 0.431102
upperback 3.41287 -5.70668 -2.38446
thorax -1.44712 -2.78944 -2.14793
lowerneck -5.72319 -9.39743 -6.9305
upperneck 3.35466 -12.3187 5.64922
head 2.9639 -6.07194 2.44428
rclavicle 3.99557e-014 -7.95139e-015
rhumerus -23.3148 1.18042 -56.3536
rradius 67.9672
rwrist -14.5175
rhand -43.6373 28.0658
rfingers 7.12502
rthumb -16.472 -1.25491
lclavicle 3.99557e-014 -7.95139e-015
lhumerus -18.2046 -22.2854 93.2872
lradius 74.2865
lwrist 24.6062
lhand -25.4185 24.9034
lfingers 7.12502
lthumb 1.10741 54.8803
rfemur -7.67583 1.76209 19.9855
rtibia 31.0009
rfoot -18.2105 -11.9436
rtoes 3.46262
lfemur 0.745968 6.37471 -6.3674
ltibia 24.3281
lfoot -15.6526 24.0603
ltoes -4.58462
358
root 5.32064 17.4676 2.62832 -170.313 84.4732 -166.149
lowerback 8.19611 -4.34204 0.105638
upperback 3.36909 -5.70153 -2.44194
thorax -1.35092 -2.78878 -2.0422
lowerneck -5.69062 -9.44608 -7.36153
upperneck 3.39205 -12.3843 6.1286
head 3.05122 -6.09787 2.67433
rclavicle -2.25621e-014 -4.77083e-015
rhumerus -22.775 1.86509 -58.436
rradius 67.8908
rwrist -14.421
rhand -43.3528 28.2512
rfingers 7.12502
rthumb -16.1981 -1.09207
lclavicle -2.25621e-014 -4.77083e-015
lhumerus -17.7231 -22.7007 94.0656
lradius 74.0813
lwrist 24.5324
lhand -24.8642 24.2895
lfingers 7.12502
lthumb 1.64274 54.263
rfemur -7.84084 1.67793 19.4343
rtibia 30.9125
rfoot -18.1755 -12.1721
rtoes 3.91099
lfemur 0.581606 5.82468 -7.00911
ltibia 24.026
lfoot -15.9136 24.095
ltoes -4.35391
359
root 5.3116 17.4746 2.57629 -171.721 83.89 -167.862
lowerback 7.73506 -4.46886 0.41617
upperback 3.37687 -5.84926 -2.56658
thorax -1.1386 -2.86132 -2.36339
lowerneck -5.90168 -9.48695 -7.6405
upperneck 3.6168 -12.4428 6.59005
head 3.23613 -6.11349 2.86014
rclavicle 1.19271e-014 -1.35174e-014
rhumerus -22.1932 2.64959 -60.6718
rradius 67.6857
rwrist -13.9806
rhand -43.0897 28.5073
rfingers 7.12502
rthumb -15.9447 -0.856421
lclavicle 1.19271e-014 -1.35174e-014
lhumerus -17.0142 -23.1585 94.584
lradius 73.6574
lwrist 24.5186
lhand -23.9999 24.5599
lfingers 7.12502
lthumb 2.47746 54.5252
rfemur -8.04772 1.06032 19.1051
rtibia 30.8116
rfoot -18.0161 -12.0284
rtoes 4.70906
lfemur 0.13638 5.08261 -7.40655
ltibia 23.9528
lfoot -15.806 24.3561
ltoes -4.28375
360
root 5.30284 17.4891 2.51801 -170.191 82.4902 -166.657
lowerback 7.07257 -4.74257 1.47254
upperback 3.5042 -6.14707 -2.72943
thorax -0.782895 -3.00009 -3.14573
lowerneck -6.23688 -9.63919 -7.45652
upperneck 4.03302 -12.691 7.1532
head 3.13747 -6.19092 2.67015
rclavicle 6.34123e-014 -3.18055e-015
rhumerus -21.8457 3.13651 -62.9333
rradius 67.5688
rwrist -13.388
rhand -43.3309 28.2309
rfingers 7.12502
rthumb -16.177 -1.11403
lclavicle 6.34123e-014 -3.18055e-015
lhumerus -16.3469 -24.254 94.9221
lradius 73.2879
lwrist 24.5837
lhand -23.6477 24.8659
lfingers 7.12502
lthumb 2.81757 54.8271
rfemur -8.18441 -0.0524394 19.2921
rtibia 30.7355
rfoot -18.0823 -12.0824
rtoes 4.85185
lfemur -0.738524 4.31371 -7.22493
ltibia 24.1058
lfoot -15.4454 24.0993
ltoes -5.08879
